<?xml version="1.0" encoding="UTF-8"?>
<svg width="24px" height="24px" viewBox="0 0 24 24" version="1.1" xmlns="http://www.w3.org/2000/svg" xmlns:xlink="http://www.w3.org/1999/xlink">
    <title>切片</title>
    <g id="基本页" stroke="none" stroke-width="1" fill="none" fill-rule="evenodd" stroke-linecap="round" stroke-linejoin="round">
        <g id="登录页" transform="translate(-808.000000, -568.000000)" stroke="#000000" stroke-width="1.88888889">
            <g id="账号输入框" transform="translate(786.000000, 558.000000)">
                <g id="icon_account" transform="translate(22.000000, 10.000000)">
                    <g transform="translate(4.000000, 3.000000)">
                        <path d="M5.66666667,17 L0.944444444,17 C0.422842181,17 0,16.5771578 0,16.0555556 C0,12.4043397 2.95989527,9.44444444 6.61111111,9.44444444 L7.55555556,9.44444444" id="primary"></path>
                        <path d="M12.2777778,4.72222222 C12.2777778,7.33023354 10.1635669,9.44444444 7.55555556,9.44444444 C4.94754424,9.44444444 2.83333333,7.33023354 2.83333333,4.72222222 C2.83333333,2.1142109 4.94754424,0 7.55555556,0 C10.1635669,0 12.2777778,2.1142109 12.2777778,4.72222222 Z M16.7261111,11.0405556 L15.4038889,9.71833333 C15.0366478,9.35836506 14.4489078,9.35836506 14.0816667,9.71833333 L9.44444444,14.3555556 L9.44444444,17 L12.0888889,17 L16.7261111,12.3627778 C17.0860794,11.9955367 17.0860794,11.4077966 16.7261111,11.0405556 L16.7261111,11.0405556 Z" id="primary-2"></path>
                    </g>
                </g>
            </g>
        </g>
    </g>
</svg>