<?xml version="1.0" encoding="UTF-8"?>
<svg width="24px" height="24px" viewBox="0 0 24 24" version="1.1" xmlns="http://www.w3.org/2000/svg" xmlns:xlink="http://www.w3.org/1999/xlink">
    <title>切片</title>
    <g id="基本页" stroke="none" stroke-width="1" fill="none" fill-rule="evenodd" stroke-linecap="round" stroke-linejoin="round">
        <g id="登录页" transform="translate(-808.000000, -626.000000)" stroke="#000000" stroke-width="2">
            <g id="密码输入框" transform="translate(786.000000, 616.000000)">
                <g id="icon_password" transform="translate(22.000000, 10.000000)">
                    <g transform="translate(5.000000, 3.000000)">
                        <path d="M12,6.99999678 L2,6.99999678 L2,4.99999678 C2,2.23857625 4.23857625,-3.21789446e-06 7,-3.21789446e-06 L7,-3.21789446e-06 C8.78422233,-0.00201975556 10.434321,0.946882229 11.33,2.49" id="primary"></path>
                        <path d="M13.9999993,8 L13.9999993,10.71 C14.0596198,14.5683578 11.0628678,17.7857836 7.21,18 C5.31737237,18.0568046 3.48246395,17.3444606 2.12393323,16.0254988 C0.765402516,14.7065369 -0.00085226351,12.8934797 -7.10184849e-07,11 L-7.10184849e-07,8 C-7.10184849e-07,7.44771525 0.44771525,7 0.99999929,7 L12.9999993,7 C13.5522847,7 13.9999993,7.44771525 13.9999993,8 Z M7,14 L7,13" id="primary-2"></path>
                        <line x1="7" y1="12" x2="7" y2="12" id="primary-upstroke"></line>
                        <line x1="6.95" y1="12" x2="7.05" y2="12" id="primary-upstroke-2"></line>
                    </g>
                </g>
            </g>
        </g>
    </g>
</svg>